<?xml version="1.0" encoding="UTF-8" standalone="no"?>
<svg
   xmlns:dc="http://purl.org/dc/elements/1.1/"
   xmlns:cc="http://creativecommons.org/ns#"
   xmlns:rdf="http://www.w3.org/1999/02/22-rdf-syntax-ns#"
   xmlns:svg="http://www.w3.org/2000/svg"
   xmlns="http://www.w3.org/2000/svg"
   xmlns:sodipodi="http://sodipodi.sourceforge.net/DTD/sodipodi-0.dtd"
   xmlns:inkscape="http://www.inkscape.org/namespaces/inkscape"
   viewBox="0.0 0.0 348.0 348.0"
   fill="none"
   id="svg2"
   version="1.1"
   inkscape:version="0.91 r13725"
   sodipodi:docname="Hieroglyphics.svg">
  <metadata
     id="metadata12">
    <rdf:RDF>
      <cc:Work
         rdf:about="">
        <dc:format>image/svg+xml</dc:format>
        <dc:type
           rdf:resource="http://purl.org/dc/dcmitype/StillImage" />
      </cc:Work>
    </rdf:RDF>
  </metadata>
  <defs
     id="defs10" />
  <sodipodi:namedview
     pagecolor="#ffffff"
     bordercolor="#666666"
     borderopacity="1"
     objecttolerance="10"
     gridtolerance="10"
     guidetolerance="10"
     inkscape:pageopacity="0"
     inkscape:pageshadow="2"
     inkscape:window-width="1440"
     inkscape:window-height="785"
     id="namedview8"
     showgrid="false"
     inkscape:zoom="1.3563218"
     inkscape:cx="67.093217"
     inkscape:cy="203.86017"
     inkscape:window-x="0"
     inkscape:window-y="1"
     inkscape:window-maximized="1"
     inkscape:current-layer="svg2" />
  <path
     d="M5.079 5.776h336.913v337.67H5.08z"
     stroke-width="2"
     stroke="#000"
     id="path4" />
  <path
     d="M282.734 40.554c0-8.376 6.966-15.165 15.56-15.165 4.126 0 8.084 1.597 11.001 4.441 2.918 2.844 4.558 6.702 4.558 10.724 0 8.376-6.966 15.165-15.56 15.165-8.593 0-15.559-6.79-15.559-15.165z"
     stroke-width="2"
     stroke="#000"
     id="path6" />
  <circle
     style="fill:#ffffff;fill-opacity:1;stroke:#000000;stroke-width:1.4683485;stroke-linejoin:miter;stroke-miterlimit:4;stroke-dasharray:none;stroke-opacity:1"
     id="path4144"
     cx="50.504238"
     cy="50.504238"
     r="38.973454" />
  <rect
     style="fill:none;fill-rule:evenodd;stroke:#000000;stroke-width:1;stroke-linecap:butt;stroke-linejoin:miter;stroke-opacity:1;stroke-miterlimit:4;stroke-dasharray:none"
     id="rect4146"
     width="40.015415"
     height="40.015415"
     x="69.204155"
     y="275.64484" />
  <rect
     y="275.64484"
     x="237.30585"
     height="40.015415"
     width="40.015415"
     id="rect4148"
     style="fill:none;fill-rule:evenodd;stroke:#000000;stroke-width:1;stroke-linecap:butt;stroke-linejoin:miter;stroke-miterlimit:4;stroke-dasharray:none;stroke-opacity:1" />
  <rect
     style="fill:none;fill-rule:evenodd;stroke:#000000;stroke-width:1.00859451;stroke-linecap:butt;stroke-linejoin:miter;stroke-miterlimit:4;stroke-dasharray:none;stroke-opacity:1"
     id="rect4150"
     width="135.85428"
     height="11.989871"
     x="189.38641"
     y="321.36099" />
  <rect
     y="321.36099"
     x="21.284719"
     height="11.989871"
     width="135.85428"
     id="rect4152"
     style="fill:none;fill-rule:evenodd;stroke:#000000;stroke-width:1.00859451;stroke-linecap:butt;stroke-linejoin:miter;stroke-miterlimit:4;stroke-dasharray:none;stroke-opacity:1" />
  <circle
     style="fill:none;fill-opacity:1;stroke:#000000;stroke-width:1;stroke-linejoin:miter;stroke-miterlimit:4;stroke-dasharray:none;stroke-opacity:1"
     id="path4154"
     cx="87.737289"
     cy="327.35593"
     r="4.4237289" />
  <circle
     r="4.4237289"
     cy="327.35593"
     cx="256.57626"
     id="circle4156"
     style="fill:none;fill-opacity:1;stroke:#000000;stroke-width:1;stroke-linejoin:miter;stroke-miterlimit:4;stroke-dasharray:none;stroke-opacity:1" />
  <g
     style="font-style:normal;font-weight:normal;font-size:40px;line-height:125%;font-family:sans-serif;letter-spacing:0px;word-spacing:0px;fill:#000000;fill-opacity:1;stroke:none;stroke-width:1px;stroke-linecap:butt;stroke-linejoin:miter;stroke-opacity:1"
     id="text4158">
    <path
       d="m 133.31734,19.076569 q 1.8457,-0.05859 3.15429,-0.05859 1.31836,0 3.16407,-0.146485 1.93359,-0.146484 3.58398,-0.625 1.65039,-0.478515 3.0957,-1.132812 1.31836,-0.585938 2.54883,-1.328125 1.23047,-0.751953 2.83203,-1.923828 -0.61523,2.978515 -1.88476,4.746094 -1.25977,1.757812 -2.5,3.164062 -1.06446,1.201172 -3.07617,2.148438 -2.00196,0.947265 -3.61329,1.279296 -1.64062,0.341797 -3.61328,0.390625 -1.96289,0.04883 -3.6914,0.107422 l 0,-6.621093 0,0 z m 1.59179,1.640625 0,3.232421 q 1.34766,-0.03906 2.72461,-0.06836 1.37696,-0.03906 2.64649,-0.253906 1.25976,-0.205078 2.14844,-0.615235 0.89843,-0.419921 1.98242,-1.035156 1.14258,-0.644531 2.1289,-1.503906 0.98633,-0.869141 2.07032,-2.890625 -1.25,0.996094 -1.96289,1.181641 -0.7129,0.175781 -1.73829,0.55664 -1.12304,0.419922 -2.33398,0.742188 -1.20117,0.3125 -2.69531,0.458984 -0.6836,0.07813 -0.87891,0.107422 -0.19531,0.01953 -0.51758,0.03906 -0.32226,0.0098 -1.06445,0.01953 -0.74219,0 -2.50977,0.0293 z"
       style="font-style:normal;font-variant:normal;font-weight:normal;font-stretch:normal;font-size:20px;font-family:'Meroitic - Hieroglyphics';-inkscape-font-specification:'Meroitic - Hieroglyphics'"
       id="path4189" />
    <path
       d="m 157.4482,15.990631 0,0 q 0.88867,-1.044922 1.52343,-1.240234 0.63477,-0.195313 1.04493,-0.117188 0.76171,0.146485 0.8789,0.986328 0.12696,0.839844 -0.47851,1.279297 -0.46875,0.351563 -1.2793,0.351563 -0.80078,-0.0098 -1.38672,-0.166016 0.97656,0.908203 1.35742,1.5625 0.38086,0.644531 0.44922,1.503906 0.0488,0.69336 -0.0488,1.328125 -0.0976,0.634766 -0.69336,1.210938 -0.61523,0.595703 -1.76757,0.634765 -1.15235,0.0293 -1.63086,-0.410156 -0.38086,-0.332031 -0.75196,-1.064453 -0.37109,-0.742187 -0.29297,-1.386719 0.25391,-2.021484 1.5918,-3.251953 l -2.1582,-1.689453 0.64453,-0.800781 1.66016,1.289062 q 0.18554,-6.630859 4.12109,-6.6699215 1.74805,0 3.00781,1.5722655 1.25977,1.5625 1.31836,6.40625 l -0.0293,8.427734 -1.41601,0 0.01,-8.330078 q 0,-3.935547 -0.86914,-5.263672 -0.85937,-1.328125 -2.13867,-1.357421 -1.37695,-0.0293 -2.05078,1.777343 -0.66406,1.806641 -0.61523,3.417969 z m -0.49805,1.757813 0,0 q -0.78125,0.761718 -1.04492,1.171875 -0.25391,0.40039 -0.33203,1.015625 -0.0781,0.625 0.23437,1.464843 0.3125,0.830078 1.05469,0.761719 0.71289,-0.05859 1.24023,-0.400391 0.53711,-0.351562 0.36133,-1.435546 -0.20508,-1.171875 -0.52734,-1.484375 -0.3125,-0.3125 -0.98633,-1.09375 z m 0.98633,-1.259766 q 1.21094,0.205078 1.88476,0 0.20508,-0.04883 0.32227,-0.302734 0.11719,-0.253907 0.0879,-0.478516 -0.0391,-0.175781 -0.3125,-0.273438 -0.26367,-0.09766 -0.42969,-0.04883 -0.68359,0.195313 -1.55273,1.103516 z"
       style="font-style:normal;font-variant:normal;font-weight:normal;font-stretch:normal;font-size:20px;font-family:'Meroitic - Hieroglyphics';-inkscape-font-specification:'Meroitic - Hieroglyphics'"
       id="path4191" />
    <path
       d="m 180.30952,21.820709 0,0 q -1.31835,0.810547 -2.26562,1.328125 -0.94727,0.517578 -1.93359,0.898438 -0.97657,0.371093 -2.19727,0.664062 -1.21094,0.292969 -3.06641,0.644531 -1.07421,0 -1.61132,0 -0.53711,0 -0.97657,0 -0.42968,0 -0.96679,0 -0.53711,0 -1.60157,0 -0.15625,0 -0.15625,0 0,-0.3125 -0.0684,-0.585937 -0.0683,-0.273438 0.22461,-0.361328 0.70313,-0.185547 1.05469,-0.06836 0.35156,0.107422 1.50391,0.01953 1.21094,-1.816407 1.71875,-2.216797 0.51758,-0.400391 1.30859,-1.25 -0.20508,-0.283203 -0.41992,-0.566406 -0.20508,-0.292969 -0.41016,-0.585938 -0.41015,0.234375 -0.86914,0.644531 -0.45898,0.400391 -0.53711,0.341797 -0.65429,-1.074219 -1.18164,-1.162109 -0.51758,-0.09766 -0.5664,-0.810547 -0.0391,-0.419922 1.10351,-1.650391 1.15235,-1.230468 1.79688,-1.269531 1.40625,-0.07813 2.89062,0.878906 1.49414,0.957032 3.1836,1.777344 1.13281,0.556641 1.93359,0.439453 0.80078,-0.126953 2.08008,-0.117187 0.0977,-0.566407 1.00586,-1.025391 0.91797,-0.46875 2.06054,-0.273437 0.24414,0.04883 0.23438,0.546875 0,0.498046 -0.29297,0.439453 -1.13281,-0.214844 -1.40625,0.175781 -0.26367,0.380859 -0.45898,0.615234 1.78711,0.08789 3.19336,1.621094 1.40625,1.533203 1.79687,4.238281 -0.01,0.185547 -1.21094,0.302735 -1.20117,0.107422 -2.83203,0.126953 -1.63086,0.0098 -3.32031,-0.07813 -1.68945,-0.08789 -2.66602,-0.292969 -0.15625,-0.0293 -0.0976,-0.3125 0.0586,-0.283203 0.20508,-0.3125 1.49414,-0.166016 2.82226,-0.03906 1.32813,0.126953 2.83203,0.09766 -0.86914,-0.664063 -1.2207,-1.269531 -0.3418,-0.605469 -0.61524,-1.552735 z m -9.23828,-5.380859 q -0.24414,-0.01953 -0.41015,-0.06836 -0.16602,-0.04883 -0.33203,-0.04883 -0.26368,0.283203 -0.26368,0.332032 0.26368,0.136718 0.23438,0.410156 -0.0391,0.24414 -0.35156,0.263672 -0.15625,0.0293 -0.30274,0.0098 -0.13672,-0.0293 -0.24414,-0.322265 -0.41015,0.263672 -0.83984,0.830078 -0.41992,0.55664 -0.59571,0.751953 0.10743,0.234375 0.53711,0.517578 0.43946,0.283203 0.73243,0.537109 0.47851,-0.322265 0.61523,-0.595703 0.14648,-0.283203 0.73242,-0.24414 0.21485,0.117187 0.64453,0.595703 0.42969,0.46875 0.54688,1.02539 0.36133,-0.3125 0.70312,-0.46875 0.21485,-0.09766 0.70313,-0.253906 0.48828,-0.15625 0.74219,-0.214844 -0.50782,-1.132812 -0.81055,-1.357421 -0.29297,-0.234375 -0.79102,-0.429688 -0.39062,-0.09766 -0.5957,-0.234375 -0.20508,-0.146484 -0.58594,-0.253906 -0.0488,-0.166016 -0.01,-0.400391 0.0488,-0.24414 -0.0586,-0.380859 l 0,0 z m -1.80664,8.037109 0,0 q 0.82032,-0.0098 0.89844,0.0098 0.0781,0.0098 0.9082,-0.0098 2.08985,-0.498047 3.38868,-0.908203 1.29882,-0.419922 2.20703,-0.820312 0.91797,-0.410157 1.65039,-0.839844 0.73242,-0.439453 1.69922,-0.986328 -0.0293,-0.351563 -0.0293,-0.556641 0.01,-0.205078 0.18555,-0.761719 -0.79102,0.03906 -1.78711,0.146485 -0.9961,0.09766 -1.74805,-0.107422 -0.67383,-0.175781 -1.07422,-0.507813 -0.40039,-0.332031 -1.03516,-0.595703 0.4004,0.800781 0.38086,1.181641 -0.01,0.371094 0.01,0.810547 0,0.146484 -0.23438,0.195312 -0.2246,0.03906 -0.34179,-0.03906 -0.14649,-0.08789 -0.19531,-0.175782 -0.0391,-0.08789 -0.19532,-0.283203 -0.2539,-0.292968 -1.03515,0.234375 -0.78125,0.517578 -1.12305,0.898438 -0.83984,0.966797 -1.34766,1.49414 -0.50781,0.527344 -1.18164,1.621094 z m 11.68946,-4.570312 q 0.0488,1.552734 0.52734,2.333984 0.48828,0.78125 1.66016,2.080078 0.41015,0.0098 0.97656,0.0293 0.57617,0.0098 0.99609,0.01953 -0.51758,-2.373047 -1.40625,-3.154297 -0.8789,-0.78125 -2.7539,-1.308593 z"
       style="font-style:normal;font-variant:normal;font-weight:normal;font-stretch:normal;font-size:20px;font-family:'Meroitic - Hieroglyphics';-inkscape-font-specification:'Meroitic - Hieroglyphics'"
       id="path4193" />
    <path
       d="m 196.75484,25.365631 q -0.10742,0.09766 -1.34766,0.175781 -1.23047,0.06836 -2.67578,0.107422 -1.43555,0.0293 -2.62695,0.01953 -1.18164,-0.0098 -1.19141,-0.09766 -0.0977,-0.644531 0.21484,-1.132812 0.3125,-0.488282 0.69336,-0.986328 -0.42968,-0.957032 -1.15234,-1.894532 -0.71289,-0.9375 -0.10742,-1.611328 0.60547,-0.683594 1.71875,0.205078 1.12304,0.888672 2.07031,1.25 -0.21484,-1.435547 -0.47852,-3.154297 -0.2539,-1.71875 -0.45898,-3.154296 -0.64453,0.458984 -1.18164,1.269531 -0.52734,0.800781 -0.76172,0.644531 -0.0781,-0.03906 -0.36133,-0.136719 -0.27343,-0.09766 -0.30273,-0.3125 -0.0684,-0.46875 0.3418,-1.669922 0.41992,-1.210937 0.66406,-1.396484 0.32226,-0.234375 0.57617,-0.400391 0.25391,-0.166015 0.71289,-0.361328 -0.2832,-0.927734 0.0977,-1.884765 0.22461,-0.556641 0.83007,-0.810547 0.61524,-0.2539064 1.22071,-0.341797 0.46875,-0.058594 0.98633,0.341797 0.51757,0.390625 0.33203,1.298828 -0.14649,0.751953 -0.74219,1.113281 -0.58594,0.361328 -0.99609,0.625 l 0.0391,0.419922 q 0.57617,0.0098 1.25976,-0.01953 0.6836,-0.03906 1.06446,0.126953 0.32226,0.244141 1.11328,1.396484 0.79101,1.142578 1.49414,2.8125 0,0.507813 -0.11719,1.416016 -0.10742,0.908203 -0.23437,1.806641 -0.11719,0.898437 -0.20508,1.591796 -0.0781,0.683594 -0.0195,0.742188 0.21484,0.273437 0.01,1.074219 -0.19531,0.791015 -0.2539,0.761718 -0.17578,-0.05859 -0.3125,-1.02539 -0.12696,-0.966797 -0.24414,-1.191406 0.0781,-1.240235 0.2832,-2.949219 0.21484,-1.708985 0.11719,-1.94336 -0.0586,-0.410156 -0.57618,-1.386718 -0.51757,-0.986328 -1.29882,-2.304688 0.0879,2.294922 0.0781,3.300781 0,0.996094 0.0977,3.28125 0.35156,0.644532 0.96679,2.382813 0.61524,1.728516 0.66407,2.001953 l 0,0 z m -3.61328,-14.941406 q -0.42969,0 -0.79102,0.322265 -0.36133,0.3125 -0.52734,0.69336 -0.17578,0.410156 -0.14649,0.771484 0.0391,0.361328 0.43946,0.449219 0.36132,0.08789 0.77148,-0.185547 0.41016,-0.283203 0.60547,-0.615234 0.21484,-0.390625 0.19531,-0.908203 -0.0195,-0.517579 -0.54687,-0.527344 l 0,0 z m -3.88672,9.980469 q -0.0879,0.292968 0.61523,1.230468 0.71289,0.927735 0.74219,1.113282 0.43945,-0.214844 0.68359,-0.419922 0.25391,-0.205078 0.45899,-0.332032 -0.28321,-0.08789 -1.35742,-0.947265 -1.07422,-0.869141 -1.14258,-0.644531 l 0,0 z m 0.86914,4.296875 q 0.0488,0.05859 0.8789,0.09766 0.83985,0.03906 1.82618,0.04883 0.99609,0 1.83593,-0.0293 0.83985,-0.0293 0.90821,-0.117187 -0.0293,-0.38086 -0.51758,-1.513672 -0.48828,-1.142578 -0.80078,-1.689453 -0.0781,-2.392579 -0.0293,-3.642579 0.0586,-1.259765 0,-3.662109 -0.61523,-0.01953 -0.68359,-0.04883 -0.0684,-0.03906 -0.67383,-0.05859 -0.26367,0.07813 -0.52735,0.136719 -0.26367,0.04883 -0.34179,0.283203 0.30273,1.816406 0.58594,3.564453 0.29296,1.738281 0.5957,3.544922 -0.83008,0.888672 -2.08985,1.835938 -1.25976,0.947265 -0.96679,1.25 l 0,0 z m 1.35742,-11.728516 q 0,0.09766 -0.11719,0.244141 -0.10742,0.146484 -0.16601,0.205078 -0.0586,0.05859 -0.16602,0.04883 -0.0977,-0.0098 -0.17578,0.01953 -0.2832,0.09766 -0.22461,0.03906 0.0586,-0.06836 -0.18555,0.136718 -0.14648,0.117188 -0.625,1.25 -0.46875,1.123047 -0.32226,1.181641 0.10742,0.05859 0.78125,-0.771484 0.67383,-0.839844 1.18164,-1.367188 0.13672,-0.146484 0.41015,-0.195312 0.28321,-0.05859 0.41016,-0.205079 l -0.0684,-0.380859 q -0.17578,-0.09766 -0.38086,-0.09766 -0.19531,0 -0.35156,-0.107422 z"
       style="font-style:normal;font-variant:normal;font-weight:normal;font-stretch:normal;font-size:20px;font-family:'Meroitic - Hieroglyphics';-inkscape-font-specification:'Meroitic - Hieroglyphics'"
       id="path4195" />
    <path
       d="m 203.22945,20.209381 q -0.01,-2.587891 -0.0781,-4.111328 -0.0586,-1.533203 -0.32226,-2.441406 -0.25391,-0.917969 -0.79102,-1.435547 -0.52734,-0.527344 -1.46484,-1.103516 l 0,7.792969 2.65625,1.298828 0,0 z m -0.0684,1.494141 -3.84766,-2.001953 0,-10.2929691 q 2.8125,-0.058594 4.16016,2.1093751 1.34765,2.167969 1.18164,7.197265 l 0.0195,7.041016 -1.5332,0 q 0,-1.054687 0,-2.03125 0,-0.986328 0.0195,-2.021484 l 0,0 z m 7.27539,-1.494141 q -0.01,-2.587891 -0.0781,-4.111328 -0.0586,-1.533203 -0.32226,-2.441406 -0.26367,-0.917969 -0.79102,-1.435547 -0.52734,-0.527344 -1.46484,-1.103516 l 0,7.792969 2.65625,1.298828 0,0 z m -0.0781,1.494141 -3.83789,-2.001953 0,-10.2929691 q 2.8125,-0.058594 4.16016,2.1093751 1.34765,2.167969 1.18164,7.197265 l 0.01,7.041016 -1.52343,0 q -0.01,-1.054687 -0.01,-2.03125 0,-0.986328 0.0195,-2.021484 z"
       style="font-style:normal;font-variant:normal;font-weight:normal;font-stretch:normal;font-size:20px;font-family:'Meroitic - Hieroglyphics';-inkscape-font-specification:'Meroitic - Hieroglyphics'"
       id="path4197" />
  </g>
  <g
     style="font-style:normal;font-weight:normal;font-size:40px;line-height:125%;font-family:sans-serif;text-align:center;letter-spacing:0px;word-spacing:0px;text-anchor:middle;fill:#000000;fill-opacity:1;stroke:none;stroke-width:1px;stroke-linecap:butt;stroke-linejoin:miter;stroke-opacity:1"
     id="text4162">
    <path
       d="m 117.89888,82.610756 q 3.69141,-0.117188 6.30859,-0.117188 2.63672,0 6.32813,-0.292968 3.86719,-0.292969 7.16797,-1.25 3.30078,-0.957032 6.1914,-2.265625 2.63672,-1.171875 5.09766,-2.65625 2.46094,-1.503907 5.66406,-3.847657 -1.23047,5.957032 -3.76953,9.492188 -2.51953,3.515625 -5,6.328125 -2.1289,2.402344 -6.15234,4.296875 -4.00391,1.894531 -7.22656,2.558594 -3.28125,0.683593 -7.22657,0.78125 -3.92578,0.09766 -7.38281,0.214843 l 0,-13.242187 0,0 z m 3.18359,3.28125 0,6.464844 q 2.69532,-0.07813 5.44922,-0.136719 2.75391,-0.07813 5.29297,-0.507813 2.51953,-0.410156 4.29688,-1.230468 1.79687,-0.839844 3.96484,-2.070313 2.28516,-1.289062 4.25781,-3.007812 1.97266,-1.738282 4.14063,-5.78125 -2.5,1.992187 -3.92578,2.363281 -1.42578,0.351562 -3.47657,1.113281 -2.24609,0.839844 -4.66796,1.484375 -2.40235,0.625 -5.39063,0.917969 -1.36719,0.15625 -1.75781,0.214844 -0.39063,0.03906 -1.03516,0.07813 -0.64453,0.01953 -2.1289,0.03906 -1.48438,0 -5.01954,0.05859 z"
       style="font-style:normal;font-variant:normal;font-weight:normal;font-stretch:normal;font-size:40px;font-family:'Meroitic - Hieroglyphics';-inkscape-font-specification:'Meroitic - Hieroglyphics';text-align:center;text-anchor:middle"
       id="path4200" />
    <path
       d="m 186.88326,88.099037 0,0 q -2.63672,1.621094 -4.53125,2.65625 -1.89454,1.035156 -3.86719,1.796875 -1.95313,0.742188 -4.39453,1.328125 -2.42188,0.585938 -6.13282,1.289063 -2.14843,0 -3.22265,0 -1.07422,0 -1.95313,0 -0.85937,0 -1.93359,0 -1.07422,0 -3.20313,0 -0.3125,0 -0.3125,0 0,-0.625 -0.13671,-1.171875 -0.13672,-0.546875 0.44921,-0.722657 1.40625,-0.371093 2.10938,-0.136718 0.70312,0.214843 3.00781,0.03906 2.42188,-3.632812 3.4375,-4.433594 1.03516,-0.800781 2.61719,-2.5 -0.41016,-0.566406 -0.83984,-1.132812 -0.41016,-0.585938 -0.82032,-1.171875 -0.82031,0.46875 -1.73828,1.289062 -0.91797,0.800782 -1.07422,0.683594 -1.30859,-2.148437 -2.36328,-2.324219 -1.03515,-0.195312 -1.13281,-1.621093 -0.0781,-0.839844 2.20703,-3.300782 2.30469,-2.460937 3.59375,-2.539062 2.8125,-0.15625 5.78125,1.757812 2.98828,1.914063 6.36719,3.554688 2.26562,1.113281 3.86719,0.878906 1.60156,-0.253906 4.16015,-0.234375 0.19531,-1.132812 2.01172,-2.050781 1.83594,-0.9375 4.12109,-0.546875 0.48829,0.09766 0.46875,1.09375 0,0.996094 -0.58593,0.878906 -2.26563,-0.429687 -2.8125,0.351563 -0.52735,0.761718 -0.91797,1.230468 3.57422,0.175782 6.38672,3.242188 2.8125,3.066406 3.59375,8.476562 -0.0195,0.371094 -2.42188,0.605469 -2.40234,0.214844 -5.66406,0.253906 -3.26172,0.01953 -6.64063,-0.15625 -3.3789,-0.175781 -5.33203,-0.585937 -0.3125,-0.05859 -0.19531,-0.625 0.11719,-0.566406 0.41016,-0.625 2.98828,-0.332031 5.64453,-0.07813 2.65625,0.253906 5.66406,0.195312 -1.73828,-1.328125 -2.44141,-2.539062 -0.68359,-1.210938 -1.23046,-3.105469 z M 168.40669,77.337318 q -0.48828,-0.03906 -0.82031,-0.136718 -0.33203,-0.09766 -0.66406,-0.09766 -0.52735,0.566407 -0.52735,0.664063 0.52735,0.273437 0.46875,0.820312 -0.0781,0.488282 -0.70312,0.527344 -0.3125,0.05859 -0.60547,0.01953 -0.27344,-0.05859 -0.48828,-0.644531 -0.82031,0.527344 -1.67969,1.660156 -0.83984,1.113282 -1.1914,1.503907 0.21484,0.46875 1.07421,1.035156 0.87891,0.566406 1.46485,1.074219 0.95703,-0.644532 1.23047,-1.191407 0.29297,-0.566406 1.46484,-0.488281 0.42969,0.234375 1.28906,1.191406 0.85938,0.9375 1.09375,2.050782 0.72266,-0.625 1.40625,-0.9375 0.42969,-0.195313 1.40625,-0.507813 0.97657,-0.3125 1.48438,-0.429687 -1.01563,-2.265625 -1.6211,-2.714844 -0.58593,-0.46875 -1.58203,-0.859375 -0.78125,-0.195313 -1.1914,-0.46875 -0.41016,-0.292969 -1.17188,-0.507813 -0.0976,-0.332031 -0.0195,-0.800781 0.0977,-0.488281 -0.11719,-0.761719 l 0,0 z m -3.61328,16.074219 0,0 q 1.64063,-0.01953 1.79688,0.01953 0.15625,0.01953 1.8164,-0.01953 4.17969,-0.996094 6.77735,-1.816406 2.59765,-0.839844 4.41406,-1.640625 1.83594,-0.820313 3.30078,-1.679688 1.46484,-0.878906 3.39844,-1.972656 -0.0586,-0.703125 -0.0586,-1.113281 0.0195,-0.410156 0.3711,-1.523438 -1.58203,0.07813 -3.57422,0.292969 -1.99219,0.195313 -3.49609,-0.214844 -1.34766,-0.351562 -2.14844,-1.015625 -0.80078,-0.664062 -2.07031,-1.191406 0.80078,1.601563 0.76171,2.363281 -0.0195,0.742188 0.0195,1.621094 0,0.292969 -0.46875,0.390625 -0.44922,0.07813 -0.6836,-0.07813 -0.29297,-0.175781 -0.39062,-0.351562 -0.0781,-0.175782 -0.39063,-0.566407 -0.50781,-0.585937 -2.07031,0.46875 -1.5625,1.035157 -2.24609,1.796875 -1.67969,1.933594 -2.69532,2.988282 -1.01562,1.054687 -2.36328,3.242187 z m 23.37891,-9.140625 q 0.0976,3.105469 1.05469,4.667969 0.97656,1.5625 3.32031,4.160156 0.82031,0.01953 1.95312,0.05859 1.15235,0.01953 1.99219,0.03906 -1.03516,-4.746093 -2.8125,-6.308593 -1.75781,-1.5625 -5.50781,-2.617188 z"
       style="font-style:normal;font-variant:normal;font-weight:normal;font-stretch:normal;font-size:40px;font-family:'Meroitic - Hieroglyphics';-inkscape-font-specification:'Meroitic - Hieroglyphics';text-align:center;text-anchor:middle"
       id="path4202" />
    <path
       d="m 211.08247,84.876381 q -0.0195,-5.175781 -0.15625,-8.222656 -0.11718,-3.066407 -0.64453,-4.882813 -0.50781,-1.835937 -1.58203,-2.871094 -1.05469,-1.054687 -2.92969,-2.207031 l 0,15.585938 5.3125,2.597656 0,0 z m -0.13671,2.988281 -7.69532,-4.003906 0,-20.585938 q 5.625,-0.117187 8.32032,4.21875 2.69531,4.335938 2.36328,14.394532 l 0.0391,14.082031 -3.06641,0 q 0,-2.109375 0,-4.0625 0,-1.972656 0.0391,-4.042969 l 0,0 z m 14.55078,-2.988281 q -0.0195,-5.175781 -0.15625,-8.222656 -0.11719,-3.066407 -0.64453,-4.882813 -0.52735,-1.835937 -1.58204,-2.871094 -1.05468,-1.054687 -2.92968,-2.207031 l 0,15.585938 5.3125,2.597656 0,0 z m -0.15625,2.988281 -7.67578,-4.003906 0,-20.585938 q 5.625,-0.117187 8.32031,4.21875 2.69531,4.335938 2.36328,14.394532 l 0.0195,14.082031 -3.04687,0 q -0.0195,-2.109375 -0.0195,-4.0625 0,-1.972656 0.0391,-4.042969 z"
       style="font-style:normal;font-variant:normal;font-weight:normal;font-stretch:normal;font-size:40px;font-family:'Meroitic - Hieroglyphics';-inkscape-font-specification:'Meroitic - Hieroglyphics';text-align:center;text-anchor:middle"
       id="path4204" />
  </g>
  <g
     style="font-style:normal;font-weight:normal;font-size:40px;line-height:125%;font-family:sans-serif;text-align:center;letter-spacing:0px;word-spacing:0px;text-anchor:middle;fill:#000000;fill-opacity:1;stroke:none;stroke-width:1px;stroke-linecap:butt;stroke-linejoin:miter;stroke-opacity:1"
     id="text4166">
    <path
       d="m 98.49469,130.42433 q 3.69141,-0.11719 6.30859,-0.11719 2.63672,0 6.32813,-0.29296 3.86719,-0.29297 7.16797,-1.25 3.30078,-0.95704 6.1914,-2.26563 2.63672,-1.17187 5.09766,-2.65625 2.46094,-1.50391 5.66406,-3.84766 -1.23047,5.95704 -3.76953,9.49219 -2.51953,3.51563 -5,6.32813 -2.12891,2.40234 -6.15234,4.29687 -4.00391,1.89453 -7.22657,2.5586 -3.28125,0.68359 -7.22656,0.78125 -3.92578,0.0976 -7.38281,0.21484 l 0,-13.24219 0,0 z m 3.18359,3.28125 0,6.46485 q 2.69532,-0.0781 5.44922,-0.13672 2.75391,-0.0781 5.29297,-0.50782 2.51953,-0.41015 4.29688,-1.23046 1.79687,-0.83985 3.96484,-2.07032 2.28516,-1.28906 4.25781,-3.00781 1.97266,-1.73828 4.14063,-5.78125 -2.5,1.99219 -3.92578,2.36328 -1.42579,0.35156 -3.47657,1.11328 -2.24609,0.83985 -4.66797,1.48438 -2.40234,0.625 -5.39062,0.91797 -1.36719,0.15625 -1.75781,0.21484 -0.39063,0.0391 -1.03516,0.0781 -0.64453,0.0195 -2.12891,0.0391 -1.48437,0 -5.01953,0.0586 z"
       style="font-style:normal;font-variant:normal;font-weight:normal;font-stretch:normal;font-size:40px;font-family:'Meroitic - Hieroglyphics';-inkscape-font-specification:'Meroitic - Hieroglyphics';text-align:center;text-anchor:middle"
       id="path4207" />
    <path
       d="m 167.47906,135.91261 0,0 q -2.63671,1.6211 -4.53125,2.65625 -1.89453,1.03516 -3.86718,1.79688 -1.95313,0.74219 -4.39453,1.32812 -2.42188,0.58594 -6.13282,1.28907 -2.14843,0 -3.22265,0 -1.07422,0 -1.95313,0 -0.85937,0 -1.93359,0 -1.07422,0 -3.20313,0 -0.3125,0 -0.3125,0 0,-0.625 -0.13672,-1.17188 -0.13671,-0.54687 0.44922,-0.72266 1.40625,-0.37109 2.10938,-0.13671 0.70312,0.21484 3.00781,0.0391 2.42188,-3.63281 3.4375,-4.4336 1.03516,-0.80078 2.61719,-2.5 -0.41016,-0.5664 -0.83985,-1.13281 -0.41015,-0.58594 -0.82031,-1.17187 -0.82031,0.46875 -1.73828,1.28906 -0.91797,0.80078 -1.07422,0.68359 -1.30859,-2.14843 -2.36328,-2.32422 -1.03516,-0.19531 -1.13281,-1.62109 -0.0781,-0.83984 2.20703,-3.30078 2.30469,-2.46094 3.59375,-2.53906 2.8125,-0.15625 5.78125,1.75781 2.98828,1.91406 6.36719,3.55469 2.26562,1.11328 3.86718,0.8789 1.60157,-0.2539 4.16016,-0.23437 0.19531,-1.13281 2.01172,-2.05078 1.83594,-0.9375 4.12109,-0.54688 0.48828,0.0977 0.46875,1.09375 0,0.9961 -0.58593,0.87891 -2.26563,-0.42969 -2.8125,0.35156 -0.52735,0.76172 -0.91797,1.23047 3.57422,0.17578 6.38672,3.24219 2.8125,3.0664 3.59375,8.47656 -0.0195,0.37109 -2.42188,0.60547 -2.40234,0.21484 -5.66406,0.2539 -3.26172,0.0195 -6.64063,-0.15625 -3.3789,-0.17578 -5.33203,-0.58593 -0.3125,-0.0586 -0.19531,-0.625 0.11719,-0.56641 0.41016,-0.625 2.98828,-0.33203 5.64453,-0.0781 2.65625,0.25391 5.66406,0.19531 -1.73828,-1.32812 -2.44141,-2.53906 -0.68359,-1.21094 -1.23047,-3.10547 z M 149.0025,125.15089 q -0.48828,-0.0391 -0.82031,-0.13671 -0.33203,-0.0977 -0.66406,-0.0977 -0.52735,0.56641 -0.52735,0.66406 0.52735,0.27344 0.46875,0.82031 -0.0781,0.48829 -0.70312,0.52735 -0.3125,0.0586 -0.60547,0.0195 -0.27344,-0.0586 -0.48828,-0.64453 -0.82031,0.52734 -1.67969,1.66015 -0.83984,1.11329 -1.19141,1.50391 0.21485,0.46875 1.07422,1.03516 0.87891,0.5664 1.46485,1.07422 0.95703,-0.64454 1.23047,-1.19141 0.29296,-0.56641 1.46484,-0.48828 0.42969,0.23437 1.28906,1.1914 0.85938,0.9375 1.09375,2.05079 0.72266,-0.625 1.40625,-0.9375 0.42969,-0.19532 1.40625,-0.50782 0.97656,-0.3125 1.48438,-0.42968 -1.01563,-2.26563 -1.6211,-2.71485 -0.58593,-0.46875 -1.58203,-0.85937 -0.78125,-0.19532 -1.1914,-0.46875 -0.41016,-0.29297 -1.17188,-0.50782 -0.0977,-0.33203 -0.0195,-0.80078 0.0977,-0.48828 -0.11719,-0.76172 l 0,0 z m -3.61328,16.07422 0,0 q 1.64063,-0.0195 1.79688,0.0195 0.15625,0.0195 1.8164,-0.0195 4.17969,-0.99609 6.77735,-1.8164 2.59765,-0.83985 4.41406,-1.64063 1.83594,-0.82031 3.30078,-1.67969 1.46484,-0.8789 3.39844,-1.97265 -0.0586,-0.70313 -0.0586,-1.11328 0.0195,-0.41016 0.3711,-1.52344 -1.58203,0.0781 -3.57422,0.29297 -1.99219,0.19531 -3.4961,-0.21485 -1.34765,-0.35156 -2.14843,-1.01562 -0.80078,-0.66406 -2.07032,-1.19141 0.80079,1.60157 0.76172,2.36328 -0.0195,0.74219 0.0195,1.6211 0,0.29297 -0.46875,0.39062 -0.44921,0.0781 -0.68359,-0.0781 -0.29297,-0.17578 -0.39062,-0.35156 -0.0781,-0.17579 -0.39063,-0.56641 -0.50781,-0.58594 -2.07031,0.46875 -1.5625,1.03516 -2.2461,1.79687 -1.67968,1.9336 -2.69531,2.98829 -1.01562,1.05468 -2.36328,3.24218 z m 23.37891,-9.14062 q 0.0976,3.10547 1.05468,4.66797 0.97657,1.5625 3.32032,4.16015 0.82031,0.0195 1.95312,0.0586 1.15235,0.0195 1.99219,0.0391 -1.03516,-4.74609 -2.8125,-6.30859 -1.75781,-1.5625 -5.50781,-2.61719 z"
       style="font-style:normal;font-variant:normal;font-weight:normal;font-stretch:normal;font-size:40px;font-family:'Meroitic - Hieroglyphics';-inkscape-font-specification:'Meroitic - Hieroglyphics';text-align:center;text-anchor:middle"
       id="path4209" />
    <path
       d="m 183.02594,130.42433 q 3.69141,-0.11719 6.30859,-0.11719 2.63672,0 6.32813,-0.29296 3.86719,-0.29297 7.16797,-1.25 3.30078,-0.95704 6.1914,-2.26563 2.63672,-1.17187 5.09766,-2.65625 2.46094,-1.50391 5.66406,-3.84766 -1.23047,5.95704 -3.76953,9.49219 -2.51953,3.51563 -5,6.32813 -2.12891,2.40234 -6.15234,4.29687 -4.00391,1.89453 -7.22657,2.5586 -3.28125,0.68359 -7.22656,0.78125 -3.92578,0.0976 -7.38281,0.21484 l 0,-13.24219 0,0 z m 3.18359,3.28125 0,6.46485 q 2.69532,-0.0781 5.44922,-0.13672 2.75391,-0.0781 5.29297,-0.50782 2.51953,-0.41015 4.29688,-1.23046 1.79687,-0.83985 3.96484,-2.07032 2.28516,-1.28906 4.25781,-3.00781 1.97266,-1.73828 4.14063,-5.78125 -2.5,1.99219 -3.92578,2.36328 -1.42579,0.35156 -3.47657,1.11328 -2.24609,0.83985 -4.66797,1.48438 -2.40234,0.625 -5.39062,0.91797 -1.36719,0.15625 -1.75781,0.21484 -0.39063,0.0391 -1.03516,0.0781 -0.64453,0.0195 -2.12891,0.0391 -1.48437,0 -5.01953,0.0586 z"
       style="font-style:normal;font-variant:normal;font-weight:normal;font-stretch:normal;font-size:40px;font-family:'Meroitic - Hieroglyphics';-inkscape-font-specification:'Meroitic - Hieroglyphics';text-align:center;text-anchor:middle"
       id="path4211" />
    <path
       d="m 231.52203,132.68996 q -0.0195,-5.17578 -0.15625,-8.22266 -0.11718,-3.06641 -0.64453,-4.88281 -0.50781,-1.83594 -1.58203,-2.8711 -1.05469,-1.05468 -2.92969,-2.20703 l 0,15.58594 5.3125,2.59766 0,0 z m -0.13672,2.98828 -7.69531,-4.00391 0,-20.58594 q 5.625,-0.11718 8.32031,4.21875 2.69532,4.33594 2.36329,14.39454 l 0.0391,14.08203 -3.06641,0 q 0,-2.10938 0,-4.0625 0,-1.97266 0.0391,-4.04297 l 0,0 z m 14.55079,-2.98828 q -0.0195,-5.17578 -0.15625,-8.22266 -0.11719,-3.06641 -0.64454,-4.88281 -0.52734,-1.83594 -1.58203,-2.8711 -1.05468,-1.05468 -2.92968,-2.20703 l 0,15.58594 5.3125,2.59766 0,0 z m -0.15625,2.98828 -7.67579,-4.00391 0,-20.58594 q 5.625,-0.11718 8.32032,4.21875 2.69531,4.33594 2.36328,14.39454 l 0.0195,14.08203 -3.04688,0 q -0.0195,-2.10938 -0.0195,-4.0625 0,-1.97266 0.0391,-4.04297 z"
       style="font-style:normal;font-variant:normal;font-weight:normal;font-stretch:normal;font-size:40px;font-family:'Meroitic - Hieroglyphics';-inkscape-font-specification:'Meroitic - Hieroglyphics';text-align:center;text-anchor:middle"
       id="path4213" />
  </g>
  <g
     style="font-style:normal;font-weight:normal;font-size:40px;line-height:125%;font-family:sans-serif;text-align:center;letter-spacing:0px;word-spacing:0px;text-anchor:middle;fill:#000000;fill-opacity:1;stroke:none;stroke-width:1px;stroke-linecap:butt;stroke-linejoin:miter;stroke-opacity:1"
     id="text4170">
    <path
       d="m 102.70961,180.29163 q -0.0195,-5.17579 -0.15625,-8.22266 -0.11719,-3.06641 -0.64453,-4.88281 -0.50781,-1.83594 -1.58203,-2.8711 -1.05469,-1.05468 -2.92969,-2.20703 l 0,15.58594 5.3125,2.59766 0,0 z m -0.13672,2.98828 -7.695311,-4.00391 0,-20.58594 q 5.625001,-0.11718 8.320311,4.21875 2.69531,4.33594 2.36328,14.39453 l 0.0391,14.08204 -3.0664,0 q 0,-2.10938 0,-4.0625 0,-1.97266 0.0391,-4.04297 l 0,0 z m 14.55078,-2.98828 q -0.0195,-5.17579 -0.15625,-8.22266 -0.11719,-3.06641 -0.64453,-4.88281 -0.52734,-1.83594 -1.58203,-2.8711 -1.05469,-1.05468 -2.92969,-2.20703 l 0,15.58594 5.3125,2.59766 0,0 z m -0.15625,2.98828 -7.67578,-4.00391 0,-20.58594 q 5.625,-0.11718 8.32031,4.21875 2.69532,4.33594 2.36328,14.39453 l 0.0195,14.08204 -3.04688,0 q -0.0195,-2.10938 -0.0195,-4.0625 0,-1.97266 0.0391,-4.04297 z"
       style="font-style:normal;font-variant:normal;font-weight:normal;font-stretch:normal;font-size:40px;font-family:'Meroitic - Hieroglyphics';-inkscape-font-specification:'Meroitic - Hieroglyphics';text-align:center;text-anchor:middle"
       id="path4216" />
    <path
       d="m 140.30727,190.60413 q -0.21485,0.19531 -2.69532,0.35156 -2.46093,0.13672 -5.35156,0.21484 -2.87109,0.0586 -5.25391,0.0391 -2.36328,-0.0195 -2.38281,-0.19531 -0.19531,-1.28906 0.42969,-2.26562 0.625,-0.97657 1.38672,-1.97266 -0.85938,-1.91406 -2.30469,-3.78906 -1.42578,-1.875 -0.21484,-3.22266 1.21093,-1.36719 3.4375,0.41016 2.24609,1.77734 4.14062,2.5 -0.42969,-2.8711 -0.95703,-6.3086 -0.50781,-3.4375 -0.91797,-6.30859 -1.28906,0.91797 -2.36328,2.53906 -1.05469,1.60157 -1.52344,1.28907 -0.15625,-0.0781 -0.72265,-0.27344 -0.54688,-0.19531 -0.60547,-0.625 -0.13672,-0.9375 0.68359,-3.33985 0.83985,-2.42187 1.32813,-2.79296 0.64453,-0.46875 1.15234,-0.80079 0.50781,-0.33203 1.42578,-0.72265 -0.5664,-1.85547 0.19531,-3.76953 0.44922,-1.11328 1.66016,-1.6211 1.23047,-0.50781 2.44141,-0.68359 0.9375,-0.11719 1.97265,0.68359 1.03516,0.78125 0.66407,2.59766 -0.29297,1.50391 -1.48438,2.22656 -1.17187,0.72266 -1.99219,1.25 l 0.0781,0.83985 q 1.15234,0.0195 2.51953,-0.0391 1.36719,-0.0781 2.12891,0.25391 0.64453,0.48828 2.22656,2.79297 1.58203,2.28515 2.98828,5.625 0,1.01562 -0.23438,2.83203 -0.21484,1.81641 -0.46875,3.61328 -0.23437,1.79688 -0.41015,3.18359 -0.15625,1.36719 -0.0391,1.48438 0.42968,0.54687 0.0195,2.14844 -0.39063,1.58203 -0.50782,1.52343 -0.35156,-0.11718 -0.625,-2.05078 -0.2539,-1.93359 -0.48828,-2.38281 0.15625,-2.48047 0.56641,-5.89844 0.42969,-3.41797 0.23437,-3.88672 -0.11718,-0.82031 -1.15234,-2.77343 -1.03516,-1.97266 -2.59766,-4.60938 0.17579,4.58985 0.15625,6.60156 0,1.99219 0.19532,6.5625 0.70312,1.28907 1.93359,4.76563 1.23047,3.45703 1.32813,4.00391 l 0,0 z m -7.22657,-29.88282 q -0.85937,0 -1.58203,0.64453 -0.72265,0.625 -1.05469,1.38672 -0.35156,0.82032 -0.29296,1.54297 0.0781,0.72266 0.8789,0.89844 0.72266,0.17578 1.54297,-0.37109 0.82031,-0.56641 1.21094,-1.23047 0.42969,-0.78125 0.39062,-1.81641 -0.0391,-1.03516 -1.09375,-1.05469 l 0,0 z m -7.77343,19.96094 q -0.17579,0.58594 1.23046,2.46094 1.42579,1.85547 1.48438,2.22656 0.87891,-0.42969 1.36719,-0.83984 0.50781,-0.41016 0.91797,-0.66407 -0.56641,-0.17578 -2.71485,-1.89453 -2.14844,-1.73828 -2.28515,-1.28906 l 0,0 z m 1.73828,8.59375 q 0.0976,0.11719 1.75781,0.19531 1.67969,0.0781 3.65234,0.0977 1.99219,0 3.67188,-0.0586 1.67969,-0.0586 1.8164,-0.23438 -0.0586,-0.76172 -1.03515,-3.02734 -0.97656,-2.28516 -1.60156,-3.37891 -0.15625,-4.78516 -0.0586,-7.28516 0.11719,-2.51953 0,-7.32421 -1.23047,-0.0391 -1.36719,-0.0977 -0.13671,-0.0781 -1.34765,-0.11719 -0.52735,0.15625 -1.05469,0.27344 -0.52734,0.0977 -0.68359,0.56641 0.60547,3.63281 1.17187,7.1289 0.58594,3.47656 1.19141,7.08985 -1.66016,1.77734 -4.17969,3.67187 -2.51953,1.89453 -1.93359,2.5 l 0,0 z m 2.71484,-23.45703 q 0,0.19531 -0.23437,0.48828 -0.21485,0.29297 -0.33204,0.41016 -0.11718,0.11718 -0.33203,0.0976 -0.19531,-0.0195 -0.35156,0.0391 -0.56641,0.19531 -0.44922,0.0781 0.11719,-0.13672 -0.37109,0.27344 -0.29297,0.23437 -1.25,2.5 -0.9375,2.24609 -0.64453,2.36328 0.21484,0.11719 1.5625,-1.54297 1.34765,-1.67969 2.36328,-2.73437 0.27344,-0.29297 0.82031,-0.39063 0.56641,-0.11719 0.82031,-0.41016 l -0.13672,-0.76171 q -0.35156,-0.19532 -0.76171,-0.19532 -0.39063,0 -0.70313,-0.21484 z"
       style="font-style:normal;font-variant:normal;font-weight:normal;font-stretch:normal;font-size:40px;font-family:'Meroitic - Hieroglyphics';-inkscape-font-specification:'Meroitic - Hieroglyphics';text-align:center;text-anchor:middle"
       id="path4218" />
    <path
       d="m 173.74477,183.51428 0,0 q -2.63672,1.6211 -4.53125,2.65625 -1.89454,1.03516 -3.86719,1.79688 -1.95313,0.74218 -4.39453,1.32812 -2.42188,0.58594 -6.13282,1.28906 -2.14843,0 -3.22265,0 -1.07422,0 -1.95313,0 -0.85937,0 -1.93359,0 -1.07422,0 -3.20313,0 -0.3125,0 -0.3125,0 0,-0.625 -0.13671,-1.17187 -0.13672,-0.54688 0.44921,-0.72266 1.40625,-0.37109 2.10938,-0.13672 0.70312,0.21485 3.00781,0.0391 2.42188,-3.63282 3.4375,-4.4336 1.03516,-0.80078 2.61719,-2.5 -0.41016,-0.5664 -0.83984,-1.13281 -0.41016,-0.58594 -0.82032,-1.17187 -0.82031,0.46875 -1.73828,1.28906 -0.91797,0.80078 -1.07422,0.68359 -1.30859,-2.14844 -2.36328,-2.32422 -1.03515,-0.19531 -1.13281,-1.62109 -0.0781,-0.83984 2.20703,-3.30078 2.30469,-2.46094 3.59375,-2.53906 2.8125,-0.15625 5.78125,1.75781 2.98828,1.91406 6.36719,3.55469 2.26562,1.11328 3.86719,0.8789 1.60156,-0.2539 4.16015,-0.23437 0.19531,-1.13282 2.01172,-2.05078 1.83594,-0.9375 4.12109,-0.54688 0.48829,0.0977 0.46875,1.09375 0,0.99609 -0.58593,0.87891 -2.26563,-0.42969 -2.8125,0.35156 -0.52735,0.76172 -0.91797,1.23047 3.57422,0.17578 6.38672,3.24219 2.8125,3.0664 3.59375,8.47656 -0.0195,0.37109 -2.42188,0.60547 -2.40234,0.21484 -5.66406,0.2539 -3.26172,0.0195 -6.64063,-0.15625 -3.3789,-0.17578 -5.33203,-0.58593 -0.3125,-0.0586 -0.19531,-0.625 0.11719,-0.56641 0.41016,-0.625 2.98828,-0.33204 5.64453,-0.0781 2.65625,0.25391 5.66406,0.19531 -1.73828,-1.32812 -2.44141,-2.53906 -0.68359,-1.21094 -1.23046,-3.10547 z M 155.2682,172.75256 q -0.48828,-0.0391 -0.82031,-0.13672 -0.33203,-0.0976 -0.66406,-0.0976 -0.52735,0.5664 -0.52735,0.66406 0.52735,0.27344 0.46875,0.82031 -0.0781,0.48828 -0.70312,0.52735 -0.3125,0.0586 -0.60547,0.0195 -0.27344,-0.0586 -0.48828,-0.64453 -0.82031,0.52734 -1.67969,1.66015 -0.83984,1.11328 -1.1914,1.50391 0.21484,0.46875 1.07421,1.03516 0.87891,0.5664 1.46485,1.07421 0.95703,-0.64453 1.23047,-1.1914 0.29297,-0.56641 1.46484,-0.48828 0.42969,0.23437 1.28906,1.1914 0.85938,0.9375 1.09375,2.05078 0.72266,-0.625 1.40625,-0.9375 0.42969,-0.19531 1.40625,-0.50781 0.97657,-0.3125 1.48438,-0.42969 -1.01563,-2.26562 -1.6211,-2.71484 -0.58593,-0.46875 -1.58203,-0.85937 -0.78125,-0.19532 -1.1914,-0.46875 -0.41016,-0.29297 -1.17188,-0.50782 -0.0977,-0.33203 -0.0195,-0.80078 0.0977,-0.48828 -0.11719,-0.76172 l 0,0 z m -3.61328,16.07422 0,0 q 1.64063,-0.0195 1.79688,0.0195 0.15625,0.0195 1.8164,-0.0195 4.17969,-0.99609 6.77735,-1.8164 2.59765,-0.83985 4.41406,-1.64063 1.83594,-0.82031 3.30078,-1.67969 1.46484,-0.8789 3.39844,-1.97265 -0.0586,-0.70313 -0.0586,-1.11328 0.0195,-0.41016 0.3711,-1.52344 -1.58203,0.0781 -3.57422,0.29297 -1.99219,0.19531 -3.49609,-0.21485 -1.34766,-0.35156 -2.14844,-1.01562 -0.80078,-0.66406 -2.07031,-1.19141 0.80078,1.60156 0.76171,2.36328 -0.0195,0.74219 0.0195,1.6211 0,0.29297 -0.46875,0.39062 -0.44922,0.0781 -0.6836,-0.0781 -0.29297,-0.17578 -0.39062,-0.35157 -0.0781,-0.17578 -0.39063,-0.5664 -0.50781,-0.58594 -2.07031,0.46875 -1.5625,1.03515 -2.24609,1.79687 -1.67969,1.9336 -2.69532,2.98828 -1.01562,1.05469 -2.36328,3.24219 z m 23.37891,-9.14062 q 0.0977,3.10547 1.05469,4.66797 0.97656,1.5625 3.32031,4.16015 0.82031,0.0195 1.95312,0.0586 1.15235,0.0195 1.99219,0.0391 -1.03516,-4.7461 -2.8125,-6.3086 -1.75781,-1.5625 -5.50781,-2.61718 z"
       style="font-style:normal;font-variant:normal;font-weight:normal;font-stretch:normal;font-size:40px;font-family:'Meroitic - Hieroglyphics';-inkscape-font-specification:'Meroitic - Hieroglyphics';text-align:center;text-anchor:middle"
       id="path4220" />
    <path
       d="m 206.63539,190.60413 q -0.21484,0.19531 -2.69531,0.35156 -2.46094,0.13672 -5.35156,0.21484 -2.8711,0.0586 -5.25391,0.0391 -2.36328,-0.0195 -2.38281,-0.19531 -0.19532,-1.28906 0.42968,-2.26562 0.625,-0.97657 1.38672,-1.97266 -0.85937,-1.91406 -2.30468,-3.78906 -1.42579,-1.875 -0.21485,-3.22266 1.21094,-1.36719 3.4375,0.41016 2.2461,1.77734 4.14063,2.5 -0.42969,-2.8711 -0.95703,-6.3086 -0.50782,-3.4375 -0.91797,-6.30859 -1.28907,0.91797 -2.36328,2.53906 -1.05469,1.60157 -1.52344,1.28907 -0.15625,-0.0781 -0.72266,-0.27344 -0.54687,-0.19531 -0.60547,-0.625 -0.13672,-0.9375 0.6836,-3.33985 0.83984,-2.42187 1.32812,-2.79296 0.64453,-0.46875 1.15235,-0.80079 0.50781,-0.33203 1.42578,-0.72265 -0.56641,-1.85547 0.19531,-3.76953 0.44922,-1.11328 1.66016,-1.6211 1.23046,-0.50781 2.4414,-0.68359 0.9375,-0.11719 1.97266,0.68359 1.03515,0.78125 0.66406,2.59766 -0.29297,1.50391 -1.48437,2.22656 -1.17188,0.72266 -1.99219,1.25 l 0.0781,0.83985 q 1.15235,0.0195 2.51953,-0.0391 1.36719,-0.0781 2.12891,0.25391 0.64453,0.48828 2.22656,2.79297 1.58203,2.28515 2.98828,5.625 0,1.01562 -0.23437,2.83203 -0.21484,1.81641 -0.46875,3.61328 -0.23438,1.79688 -0.41016,3.18359 -0.15625,1.36719 -0.0391,1.48438 0.42969,0.54687 0.0195,2.14844 -0.39062,1.58203 -0.50781,1.52343 -0.35156,-0.11718 -0.625,-2.05078 -0.25391,-1.93359 -0.48828,-2.38281 0.15625,-2.48047 0.5664,-5.89844 0.42969,-3.41797 0.23438,-3.88672 -0.11719,-0.82031 -1.15234,-2.77343 -1.03516,-1.97266 -2.59766,-4.60938 0.17578,4.58985 0.15625,6.60156 0,1.99219 0.19531,6.5625 0.70313,1.28907 1.9336,4.76563 1.23046,3.45703 1.32812,4.00391 l 0,0 z m -7.22656,-29.88282 q -0.85938,0 -1.58203,0.64453 -0.72266,0.625 -1.05469,1.38672 -0.35156,0.82032 -0.29297,1.54297 0.0781,0.72266 0.87891,0.89844 0.72265,0.17578 1.54297,-0.37109 0.82031,-0.56641 1.21093,-1.23047 0.42969,-0.78125 0.39063,-1.81641 -0.0391,-1.03516 -1.09375,-1.05469 l 0,0 z m -7.77344,19.96094 q -0.17578,0.58594 1.23047,2.46094 1.42578,1.85547 1.48437,2.22656 0.87891,-0.42969 1.36719,-0.83984 0.50781,-0.41016 0.91797,-0.66407 -0.56641,-0.17578 -2.71484,-1.89453 -2.14844,-1.73828 -2.28516,-1.28906 l 0,0 z m 1.73828,8.59375 q 0.0977,0.11719 1.75781,0.19531 1.67969,0.0781 3.65235,0.0977 1.99219,0 3.67187,-0.0586 1.67969,-0.0586 1.81641,-0.23438 -0.0586,-0.76172 -1.03516,-3.02734 -0.97656,-2.28516 -1.60156,-3.37891 -0.15625,-4.78516 -0.0586,-7.28516 0.11718,-2.51953 0,-7.32421 -1.23047,-0.0391 -1.36719,-0.0977 -0.13672,-0.0781 -1.34766,-0.11719 -0.52734,0.15625 -1.05468,0.27344 -0.52735,0.0977 -0.6836,0.56641 0.60547,3.63281 1.17188,7.1289 0.58593,3.47656 1.1914,7.08985 -1.66015,1.77734 -4.17968,3.67187 -2.51954,1.89453 -1.9336,2.5 l 0,0 z m 2.71485,-23.45703 q 0,0.19531 -0.23438,0.48828 -0.21484,0.29297 -0.33203,0.41016 -0.11719,0.11718 -0.33203,0.0976 -0.19531,-0.0195 -0.35156,0.0391 -0.56641,0.19531 -0.44922,0.0781 0.11718,-0.13672 -0.3711,0.27344 -0.29297,0.23437 -1.25,2.5 -0.9375,2.24609 -0.64453,2.36328 0.21485,0.11719 1.5625,-1.54297 1.34766,-1.67969 2.36328,-2.73437 0.27344,-0.29297 0.82032,-0.39063 0.5664,-0.11719 0.82031,-0.41016 l -0.13672,-0.76171 q -0.35156,-0.19532 -0.76172,-0.19532 -0.39062,0 -0.70312,-0.21484 z"
       style="font-style:normal;font-variant:normal;font-weight:normal;font-stretch:normal;font-size:40px;font-family:'Meroitic - Hieroglyphics';-inkscape-font-specification:'Meroitic - Hieroglyphics';text-align:center;text-anchor:middle"
       id="path4222" />
    <path
       d="m 240.07289,183.51428 0,0 q -2.63672,1.6211 -4.53125,2.65625 -1.89453,1.03516 -3.86719,1.79688 -1.95312,0.74218 -4.39453,1.32812 -2.42187,0.58594 -6.13281,1.28906 -2.14844,0 -3.22266,0 -1.07422,0 -1.95312,0 -0.85938,0 -1.9336,0 -1.07421,0 -3.20312,0 -0.3125,0 -0.3125,0 0,-0.625 -0.13672,-1.17187 -0.13672,-0.54688 0.44922,-0.72266 1.40625,-0.37109 2.10937,-0.13672 0.70313,0.21485 3.00782,0.0391 2.42187,-3.63282 3.4375,-4.4336 1.03515,-0.80078 2.61718,-2.5 -0.41015,-0.5664 -0.83984,-1.13281 -0.41016,-0.58594 -0.82031,-1.17187 -0.82031,0.46875 -1.73828,1.28906 -0.91797,0.80078 -1.07422,0.68359 -1.3086,-2.14844 -2.36328,-2.32422 -1.03516,-0.19531 -1.13282,-1.62109 -0.0781,-0.83984 2.20704,-3.30078 2.30468,-2.46094 3.59375,-2.53906 2.8125,-0.15625 5.78125,1.75781 2.98828,1.91406 6.36718,3.55469 2.26563,1.11328 3.86719,0.8789 1.60156,-0.2539 4.16016,-0.23437 0.19531,-1.13282 2.01172,-2.05078 1.83593,-0.9375 4.12109,-0.54688 0.48828,0.0977 0.46875,1.09375 0,0.99609 -0.58594,0.87891 -2.26562,-0.42969 -2.8125,0.35156 -0.52734,0.76172 -0.91797,1.23047 3.57422,0.17578 6.38672,3.24219 2.8125,3.0664 3.59375,8.47656 -0.0195,0.37109 -2.42187,0.60547 -2.40235,0.21484 -5.66407,0.2539 -3.26171,0.0195 -6.64062,-0.15625 -3.37891,-0.17578 -5.33203,-0.58593 -0.3125,-0.0586 -0.19531,-0.625 0.11718,-0.56641 0.41015,-0.625 2.98828,-0.33204 5.64453,-0.0781 2.65625,0.25391 5.66407,0.19531 -1.73829,-1.32812 -2.44141,-2.53906 -0.68359,-1.21094 -1.23047,-3.10547 z m -18.47656,-10.76172 q -0.48828,-0.0391 -0.82031,-0.13672 -0.33204,-0.0976 -0.66407,-0.0976 -0.52734,0.5664 -0.52734,0.66406 0.52734,0.27344 0.46875,0.82031 -0.0781,0.48828 -0.70313,0.52735 -0.3125,0.0586 -0.60546,0.0195 -0.27344,-0.0586 -0.48829,-0.64453 -0.82031,0.52734 -1.67968,1.66015 -0.83985,1.11328 -1.19141,1.50391 0.21484,0.46875 1.07422,1.03516 0.87891,0.5664 1.46484,1.07421 0.95703,-0.64453 1.23047,-1.1914 0.29297,-0.56641 1.46485,-0.48828 0.42968,0.23437 1.28906,1.1914 0.85937,0.9375 1.09375,2.05078 0.72265,-0.625 1.40625,-0.9375 0.42969,-0.19531 1.40625,-0.50781 0.97656,-0.3125 1.48437,-0.42969 -1.01562,-2.26562 -1.62109,-2.71484 -0.58594,-0.46875 -1.58203,-0.85937 -0.78125,-0.19532 -1.19141,-0.46875 -0.41015,-0.29297 -1.17187,-0.50782 -0.0977,-0.33203 -0.0195,-0.80078 0.0977,-0.48828 -0.11719,-0.76172 l 0,0 z m -3.61328,16.07422 0,0 q 1.64062,-0.0195 1.79687,0.0195 0.15625,0.0195 1.81641,-0.0195 4.17969,-0.99609 6.77734,-1.8164 2.59766,-0.83985 4.41406,-1.64063 1.83594,-0.82031 3.30079,-1.67969 1.46484,-0.8789 3.39843,-1.97265 -0.0586,-0.70313 -0.0586,-1.11328 0.0195,-0.41016 0.37109,-1.52344 -1.58203,0.0781 -3.57422,0.29297 -1.99218,0.19531 -3.49609,-0.21485 -1.34766,-0.35156 -2.14844,-1.01562 -0.80078,-0.66406 -2.07031,-1.19141 0.80078,1.60156 0.76172,2.36328 -0.0195,0.74219 0.0195,1.6211 0,0.29297 -0.46875,0.39062 -0.44922,0.0781 -0.68359,-0.0781 -0.29297,-0.17578 -0.39063,-0.35157 -0.0781,-0.17578 -0.39062,-0.5664 -0.50782,-0.58594 -2.07032,0.46875 -1.5625,1.03515 -2.24609,1.79687 -1.67969,1.9336 -2.69531,2.98828 -1.01563,1.05469 -2.36328,3.24219 z m 23.3789,-9.14062 q 0.0977,3.10547 1.05469,4.66797 0.97656,1.5625 3.32031,4.16015 0.82032,0.0195 1.95313,0.0586 1.15234,0.0195 1.99219,0.0391 -1.03516,-4.7461 -2.8125,-6.3086 -1.75782,-1.5625 -5.50782,-2.61718 z"
       style="font-style:normal;font-variant:normal;font-weight:normal;font-stretch:normal;font-size:40px;font-family:'Meroitic - Hieroglyphics';-inkscape-font-specification:'Meroitic - Hieroglyphics';text-align:center;text-anchor:middle"
       id="path4224" />
  </g>
  <g
     style="font-style:normal;font-weight:normal;font-size:40px;line-height:125%;font-family:sans-serif;text-align:center;letter-spacing:0px;word-spacing:0px;text-anchor:middle;fill:#000000;fill-opacity:1;stroke:none;stroke-width:1px;stroke-linecap:butt;stroke-linejoin:miter;stroke-opacity:1"
     id="text4174">
    <path
       d="m 153.53969,312.27454 q -0.29541,0.26855 -3.70606,0.48339 -3.38379,0.18799 -7.3584,0.29541 -3.94775,0.0806 -7.22412,0.0537 -3.24951,-0.0269 -3.27636,-0.26856 -0.26856,-1.77246 0.59082,-3.11523 0.85937,-1.34278 1.90674,-2.71241 -1.18165,-2.63183 -3.16895,-5.20996 -1.96045,-2.57812 -0.29541,-4.43115 1.66504,-1.87988 4.72656,0.56397 3.08838,2.44384 5.69336,3.4375 -0.59082,-3.94776 -1.31592,-8.67432 -0.69824,-4.72656 -1.2622,-8.67432 -1.77246,1.26221 -3.24952,3.49121 -1.45019,2.20215 -2.09472,1.77246 -0.21485,-0.10742 -0.99365,-0.37597 -0.75196,-0.26856 -0.83252,-0.85938 -0.18799,-1.28906 0.93994,-4.59228 1.15478,-3.33008 1.82617,-3.84033 0.88623,-0.64454 1.58447,-1.10108 0.69824,-0.45654 1.96045,-0.99365 -0.77881,-2.55127 0.26856,-5.18311 0.61767,-1.53076 2.28271,-2.229 1.6919,-0.69824 3.35693,-0.93994 1.28907,-0.16113 2.71241,0.93994 1.42334,1.07422 0.91308,3.57178 -0.40283,2.06787 -2.04101,3.06152 -1.61133,0.99365 -2.73926,1.71875 l 0.10742,1.15479 q 1.58447,0.0269 3.46436,-0.0537 1.87988,-0.10743 2.92724,0.34912 0.88623,0.67138 3.06153,3.84033 2.17529,3.14209 4.10888,7.73437 0,1.39649 -0.32226,3.89405 -0.29541,2.49755 -0.64453,4.96826 -0.32227,2.4707 -0.56397,4.37744 -0.21484,1.87988 -0.0537,2.04102 0.59082,0.75195 0.0269,2.9541 -0.53711,2.17529 -0.69825,2.09472 -0.48339,-0.16113 -0.85937,-2.81982 -0.34912,-2.65869 -0.67139,-3.27637 0.21485,-3.41064 0.77881,-8.11035 0.59082,-4.69971 0.32227,-5.34424 -0.16114,-1.12793 -1.58448,-3.81347 -1.42334,-2.71241 -3.57177,-6.3379 0.2417,6.31104 0.21484,9.07715 0,2.73926 0.26855,9.02344 0.9668,1.77246 2.6587,6.55274 1.69189,4.75341 1.82617,5.50537 l 0,0 z m -9.93653,-41.08887 q -1.18164,0 -2.17529,0.88623 -0.99365,0.85937 -1.45019,1.90674 -0.4834,1.12793 -0.40284,2.12158 0.10743,0.99365 1.2085,1.23535 0.99365,0.2417 2.12158,-0.51025 1.12793,-0.77881 1.66504,-1.6919 0.59082,-1.07422 0.53711,-2.49756 -0.0537,-1.42334 -1.50391,-1.45019 l 0,0 z m -10.68847,27.44629 q -0.2417,0.80566 1.69189,3.38379 1.96045,2.55127 2.04102,3.06152 1.20849,-0.59082 1.87988,-1.15478 0.69824,-0.56397 1.26221,-0.91309 -0.77881,-0.2417 -3.73291,-2.60498 -2.9541,-2.39014 -3.14209,-1.77246 l 0,0 z m 2.39013,11.8164 q 0.13428,0.16114 2.417,0.26856 2.30957,0.10742 5.02197,0.13428 2.73926,0 5.04883,-0.0806 2.30957,-0.0806 2.49756,-0.32227 -0.0806,-1.04736 -1.42334,-4.16259 -1.34278,-3.14209 -2.20215,-4.646 -0.21485,-6.57959 -0.0806,-10.01709 0.16113,-3.46435 0,-10.0708 -1.69189,-0.0537 -1.87988,-0.13428 -0.18799,-0.10742 -1.85303,-0.16113 -0.7251,0.21484 -1.45019,0.37598 -0.7251,0.13427 -0.93995,0.7788 0.83252,4.99512 1.61133,9.80225 0.80567,4.78027 1.63819,9.74854 -2.28272,2.44384 -5.74707,5.04882 -3.46436,2.60498 -2.6587,3.4375 l 0,0 z m 3.73291,-32.25341 q 0,0.26855 -0.32226,0.67138 -0.29541,0.40284 -0.45654,0.56397 -0.16114,0.16113 -0.45655,0.13428 -0.26855,-0.0269 -0.4834,0.0537 -0.7788,0.26855 -0.61767,0.10742 0.16113,-0.18799 -0.51025,0.37597 -0.40284,0.32227 -1.71875,3.4375 -1.28907,3.08838 -0.88624,3.24952 0.29541,0.16113 2.14844,-2.12159 1.85303,-2.30957 3.24951,-3.75976 0.37598,-0.40283 1.12793,-0.53711 0.77881,-0.16113 1.12793,-0.56397 l -0.18798,-1.04736 q -0.4834,-0.26855 -1.04737,-0.26855 -0.53711,0 -0.9668,-0.29541 z"
       style="font-style:normal;font-variant:normal;font-weight:normal;font-stretch:normal;font-size:55px;font-family:'Meroitic - Hieroglyphics';-inkscape-font-specification:'Meroitic - Hieroglyphics';text-align:center;text-anchor:middle"
       id="path4232" />
    <path
       d="m 199.51625,302.526 0,0 q -3.62549,2.229 -6.23047,3.65234 -2.60498,1.42334 -5.31738,2.47071 -2.68555,1.02051 -6.04248,1.82617 -3.33008,0.80566 -8.43262,1.77246 -2.9541,0 -4.43115,0 -1.47705,0 -2.68555,0 -1.18164,0 -2.65869,0 -1.47705,0 -4.4043,0 -0.42968,0 -0.42968,0 0,-0.85937 -0.18799,-1.61133 -0.18799,-0.75195 0.61767,-0.99365 1.9336,-0.51025 2.90039,-0.18799 0.9668,0.29541 4.13575,0.0537 3.33007,-4.99511 4.72656,-6.09619 1.42334,-1.10107 3.59863,-3.4375 -0.56396,-0.77881 -1.15478,-1.55762 -0.56397,-0.80566 -1.12793,-1.61132 -1.12793,0.64453 -2.39014,1.77246 -1.26221,1.10107 -1.47705,0.93994 -1.79932,-2.9541 -3.24951,-3.1958 -1.42334,-0.26856 -1.55762,-2.22901 -0.10742,-1.15478 3.03467,-4.53857 3.16894,-3.38379 4.9414,-3.49121 3.86719,-0.21485 7.94922,2.41699 4.10889,2.63184 8.75489,4.8877 3.11523,1.53076 5.31738,1.20849 2.20215,-0.34912 5.72021,-0.32226 0.26856,-1.55762 2.76612,-2.81983 2.52441,-1.28906 5.6665,-0.75195 0.67139,0.13428 0.64453,1.50391 0,1.36962 -0.80566,1.20849 -3.11524,-0.59082 -3.86719,0.4834 -0.7251,1.04736 -1.26221,1.69189 4.91455,0.2417 8.78174,4.45801 3.86719,4.21631 4.94141,11.65528 -0.0269,0.51025 -3.33008,0.83252 -3.30322,0.29541 -7.78809,0.34912 -4.48486,0.0268 -9.13085,-0.21485 -4.646,-0.2417 -7.33155,-0.80566 -0.42969,-0.0806 -0.26855,-0.85938 0.16113,-0.7788 0.56396,-0.85937 4.10889,-0.45654 7.76123,-0.10742 3.65235,0.34912 7.78809,0.26855 -2.39014,-1.82617 -3.35693,-3.49121 -0.93995,-1.66504 -1.6919,-4.27002 z m -25.40527,-14.79736 q -0.67139,-0.0537 -1.12793,-0.18799 -0.45655,-0.13428 -0.91309,-0.13428 -0.7251,0.77881 -0.7251,0.91309 0.7251,0.37597 0.64454,1.12793 -0.10743,0.67138 -0.9668,0.7251 -0.42969,0.0806 -0.83252,0.0269 -0.37598,-0.0806 -0.67139,-0.88623 -1.12793,0.7251 -2.30957,2.28272 -1.15478,1.53076 -1.63818,2.06787 0.29541,0.64453 1.47705,1.42334 1.20849,0.7788 2.01416,1.47705 1.31592,-0.88623 1.69189,-1.63819 0.40284,-0.77881 2.01416,-0.67138 0.59082,0.32226 1.77246,1.63818 1.18165,1.28906 1.50391,2.81982 0.99365,-0.85937 1.93359,-1.28906 0.59082,-0.26855 1.9336,-0.69824 1.34277,-0.42969 2.04101,-0.59082 -1.39648,-3.11523 -2.229,-3.73291 -0.80566,-0.64453 -2.17529,-1.18164 -1.07422,-0.26856 -1.63819,-0.64453 -0.56396,-0.40283 -1.61132,-0.69824 -0.13428,-0.45655 -0.0269,-1.10108 0.13428,-0.67139 -0.16113,-1.04736 l 0,0 z m -4.96826,22.10205 0,0 q 2.25585,-0.0269 2.4707,0.0268 0.21484,0.0269 2.49756,-0.0268 5.74707,-1.36963 9.31884,-2.49756 3.57178,-1.15479 6.06934,-2.25586 2.52441,-1.12793 4.53857,-2.30957 2.01417,-1.2085 4.67286,-2.7124 -0.0806,-0.9668 -0.0806,-1.53076 0.0269,-0.56397 0.51025,-2.09473 -2.17529,0.10742 -4.91455,0.40283 -2.73925,0.26856 -4.80713,-0.29541 -1.85302,-0.4834 -2.9541,-1.39648 -1.10107,-0.91309 -2.84668,-1.63819 1.10108,2.20215 1.04737,3.24952 -0.0269,1.0205 0.0268,2.229 0,0.40283 -0.64453,0.53711 -0.61768,0.10742 -0.93994,-0.10742 -0.40283,-0.2417 -0.53711,-0.4834 -0.10742,-0.2417 -0.53711,-0.77881 -0.69824,-0.80566 -2.84668,0.64453 -2.14844,1.42334 -3.08838,2.4707 -2.30957,2.6587 -3.70605,4.10889 -1.39649,1.4502 -3.24951,4.45801 z m 32.14599,-12.56836 q 0.13428,4.27002 1.4502,6.41846 1.34277,2.14843 4.56543,5.72021 1.12793,0.0269 2.68554,0.0806 1.58448,0.0269 2.73926,0.0537 -1.42334,-6.52588 -3.86719,-8.67432 -2.41699,-2.14844 -7.57324,-3.59863 z"
       style="font-style:normal;font-variant:normal;font-weight:normal;font-stretch:normal;font-size:55px;font-family:'Meroitic - Hieroglyphics';-inkscape-font-specification:'Meroitic - Hieroglyphics';text-align:center;text-anchor:middle"
       id="path4234" />
  </g>
  <g
     style="font-style:normal;font-weight:normal;font-size:40px;line-height:125%;font-family:sans-serif;text-align:center;letter-spacing:0px;word-spacing:0px;text-anchor:middle;fill:#000000;fill-opacity:1;stroke:none;stroke-width:1px;stroke-linecap:butt;stroke-linejoin:miter;stroke-opacity:1"
     id="text4180">
    <path
       d="m 152.43861,246.09485 q -0.0269,-7.1167 -0.21484,-11.30615 -0.16113,-4.21631 -0.88623,-6.71387 -0.69824,-2.52441 -2.17529,-3.94775 -1.4502,-1.4502 -4.02832,-3.03467 l 0,21.43066 7.30468,3.57178 0,0 z m -0.18798,4.10889 -10.58106,-5.50538 0,-28.30566 q 7.73438,-0.16113 11.44043,5.80078 3.70606,5.96192 3.24951,19.79248 l 0.0537,19.36279 -4.21631,0 q 0,-2.90039 0,-5.58593 0,-2.7124 0.0537,-5.55908 l 0,0 z m 20.00732,-4.10889 q -0.0269,-7.1167 -0.21484,-11.30615 -0.16114,-4.21631 -0.88623,-6.71387 -0.7251,-2.52441 -2.1753,-3.94775 -1.45019,-1.4502 -4.02832,-3.03467 l 0,21.43066 7.30469,3.57178 0,0 z m -0.21484,4.10889 -10.5542,-5.50538 0,-28.30566 q 7.73437,-0.16113 11.44043,5.80078 3.70605,5.96192 3.24951,19.79248 l 0.0268,19.36279 -4.18945,0 q -0.0269,-2.90039 -0.0269,-5.58593 0,-2.7124 0.0537,-5.55908 z"
       style="font-style:normal;font-variant:normal;font-weight:normal;font-stretch:normal;font-size:55px;font-family:'Meroitic - Hieroglyphics';-inkscape-font-specification:'Meroitic - Hieroglyphics';text-align:center;text-anchor:middle"
       id="path4227" />
    <path
       d="m 204.13539,260.27454 q -0.29541,0.26855 -3.70605,0.48339 -3.38379,0.18799 -7.3584,0.29541 -3.94776,0.0806 -7.22412,0.0537 -3.24951,-0.0269 -3.27637,-0.26856 -0.26855,-1.77246 0.59082,-3.11523 0.85938,-1.34278 1.90674,-2.71241 -1.18164,-2.63183 -3.16895,-5.20996 -1.96045,-2.57812 -0.29541,-4.43115 1.66504,-1.87988 4.72657,0.56397 3.08837,2.44384 5.69335,3.4375 -0.59082,-3.94776 -1.31591,-8.67432 -0.69825,-4.72656 -1.26221,-8.67432 -1.77246,1.26221 -3.24951,3.49121 -1.4502,2.20215 -2.09473,1.77246 -0.21484,-0.10742 -0.99365,-0.37597 -0.75195,-0.26856 -0.83252,-0.85938 -0.18799,-1.28906 0.93994,-4.59228 1.15479,-3.33008 1.82617,-3.84033 0.88623,-0.64454 1.58448,-1.10108 0.69824,-0.45654 1.96044,-0.99365 -0.7788,-2.55127 0.26856,-5.18311 0.61768,-1.53076 2.28271,-2.229 1.6919,-0.69824 3.35694,-0.93994 1.28906,-0.16113 2.7124,0.93994 1.42334,1.07422 0.91309,3.57178 -0.40284,2.06787 -2.04102,3.06152 -1.61133,0.99365 -2.73926,1.71875 l 0.10742,1.15479 q 1.58448,0.0268 3.46436,-0.0537 1.87988,-0.10743 2.92725,0.34912 0.88623,0.67138 3.06152,3.84033 2.17529,3.14209 4.10889,7.73437 0,1.39649 -0.32227,3.89405 -0.29541,2.49755 -0.64453,4.96826 -0.32227,2.4707 -0.56397,4.37744 -0.21484,1.87988 -0.0537,2.04102 0.59082,0.75195 0.0269,2.9541 -0.53711,2.17529 -0.69824,2.09472 -0.4834,-0.16113 -0.85938,-2.81982 -0.34912,-2.65869 -0.67138,-3.27637 0.21484,-3.41064 0.7788,-8.11035 0.59082,-4.69971 0.32227,-5.34424 -0.16113,-1.12793 -1.58447,-3.81347 -1.42334,-2.71241 -3.57178,-6.3379 0.2417,6.31104 0.21484,9.07715 0,2.73926 0.26856,9.02344 0.96679,1.77246 2.65869,6.55274 1.69189,4.75341 1.82617,5.50537 l 0,0 z m -9.93652,-41.08887 q -1.18164,0 -2.1753,0.88623 -0.99365,0.85937 -1.45019,1.90674 -0.4834,1.12793 -0.40283,2.12158 0.10742,0.99365 1.20849,1.23535 0.99366,0.2417 2.12159,-0.51025 1.12793,-0.77881 1.66503,-1.6919 0.59082,-1.07422 0.53711,-2.49756 -0.0537,-1.42334 -1.5039,-1.45019 l 0,0 z m -10.68848,27.44629 q -0.2417,0.80566 1.6919,3.38379 1.96044,2.55127 2.04101,3.06152 1.2085,-0.59082 1.87988,-1.15478 0.69825,-0.56397 1.26221,-0.91309 -0.77881,-0.2417 -3.73291,-2.60498 -2.9541,-2.39014 -3.14209,-1.77246 l 0,0 z m 2.39014,11.8164 q 0.13428,0.16114 2.41699,0.26856 2.30957,0.10742 5.02197,0.13428 2.73926,0 5.04883,-0.0806 2.30957,-0.0806 2.49756,-0.32227 -0.0806,-1.04736 -1.42334,-4.16259 -1.34277,-3.14209 -2.20215,-4.646 -0.21484,-6.57959 -0.0806,-10.01709 0.16114,-3.46435 0,-10.0708 -1.69189,-0.0537 -1.87988,-0.13428 -0.18799,-0.10742 -1.85303,-0.16113 -0.72509,0.21484 -1.45019,0.37598 -0.7251,0.13427 -0.93994,0.7788 0.83252,4.99512 1.61133,9.80225 0.80566,4.78027 1.63818,9.74854 -2.28272,2.44384 -5.74707,5.04882 -3.46436,2.60498 -2.65869,3.4375 l 0,0 z m 3.73291,-32.25341 q 0,0.26855 -0.32227,0.67138 -0.29541,0.40284 -0.45654,0.56397 -0.16113,0.16113 -0.45654,0.13428 -0.26856,-0.0269 -0.4834,0.0537 -0.77881,0.26855 -0.61768,0.10742 0.16114,-0.18799 -0.51025,0.37597 -0.40283,0.32227 -1.71875,3.4375 -1.28906,3.08838 -0.88623,3.24952 0.29541,0.16113 2.14844,-2.12159 1.85302,-2.30957 3.24951,-3.75976 0.37597,-0.40283 1.12793,-0.53711 0.77881,-0.16113 1.12793,-0.56397 l -0.18799,-1.04736 q -0.4834,-0.26855 -1.04737,-0.26855 -0.5371,0 -0.96679,-0.29541 z"
       style="font-style:normal;font-variant:normal;font-weight:normal;font-stretch:normal;font-size:55px;font-family:'Meroitic - Hieroglyphics';-inkscape-font-specification:'Meroitic - Hieroglyphics';text-align:center;text-anchor:middle"
       id="path4229" />
  </g>
</svg>
